# xmcd CD database file
#
# Track frame offsets:
#	150
#	36298
#	56790
#	77820
#	101186
#	122085
#	140898
#	160728
#	181181
#	199988
#	223871
#	244604
#	256779
#	271824
#
# Disc length: 3872 seconds
#
# Revision: 0
# Processed by: cddbd v1.5PL3 Copyright (c) Steve Scherf et al.
# Submitted via: CDex 1.51
#
DISCID=d00f1e0e
DTITLE=Gomer Edwin Evans - The Best of
DYEAR=2000
DGENRE=New Age
TTITLE0=Wild Roses
TTITLE1=Still Chairs
TTITLE2=Seven Swans
TTITLE3=The Road To Killarney
TTITLE4=Gental Touch
TTITLE5=Friends Of The Rainforest
TTITLE6=Here Comes The Snow
TTITLE7=The Desert Awakening
TTITLE8=White Sands
TTITLE9=Freinds of the Earth
TTITLE10=The Colours Of Spring
TTITLE11=Journey Through The Stars
TTITLE12=The Falling Leaves
TTITLE13=Mysteries Of The World
EXTD=YEAR: 2000
EXTT0=
EXTT1=
EXTT2=
EXTT3=
EXTT4=
EXTT5=
EXTT6=
EXTT7=
EXTT8=
EXTT9=
EXTT10=
EXTT11=
EXTT12=
EXTT13=
PLAYORDER=
